<mxfile host="app.diagrams.net" agent="Mozilla/5.0 (Windows NT 10.0; Win64; x64) AppleWebKit/537.36 (KHTML, like Gecko) Chrome/132.0.0.0 Safari/537.36" version="26.0.11">
  <diagram name="페이지-1" id="0afUIZdy6L9XQKUrU9D0">
    <mxGraphModel dx="1687" dy="908" grid="1" gridSize="10" guides="1" tooltips="1" connect="1" arrows="1" fold="1" page="1" pageScale="1" pageWidth="827" pageHeight="1169" math="0" shadow="0">
      <root>
        <mxCell id="0" />
        <mxCell id="1" parent="0" />
        <mxCell id="7AL00uAj7pg36N8BVsaX-1" value="" style="edgeStyle=orthogonalEdgeStyle;rounded=0;orthogonalLoop=1;jettySize=auto;html=1;" edge="1" parent="1" source="7AL00uAj7pg36N8BVsaX-6" target="7AL00uAj7pg36N8BVsaX-9">
          <mxGeometry relative="1" as="geometry" />
        </mxCell>
        <mxCell id="7AL00uAj7pg36N8BVsaX-2" value="Public IP" style="edgeLabel;html=1;align=center;verticalAlign=middle;resizable=0;points=[];" vertex="1" connectable="0" parent="7AL00uAj7pg36N8BVsaX-1">
          <mxGeometry y="-1" relative="1" as="geometry">
            <mxPoint as="offset" />
          </mxGeometry>
        </mxCell>
        <mxCell id="7AL00uAj7pg36N8BVsaX-3" value="" style="edgeStyle=orthogonalEdgeStyle;rounded=0;orthogonalLoop=1;jettySize=auto;html=1;" edge="1" parent="1">
          <mxGeometry relative="1" as="geometry">
            <mxPoint x="414" y="140" as="sourcePoint" />
            <mxPoint x="290" y="140" as="targetPoint" />
          </mxGeometry>
        </mxCell>
        <mxCell id="7AL00uAj7pg36N8BVsaX-4" value="도메인 주소" style="edgeLabel;html=1;align=center;verticalAlign=middle;resizable=0;points=[];" vertex="1" connectable="0" parent="7AL00uAj7pg36N8BVsaX-3">
          <mxGeometry x="-0.0645" y="-1" relative="1" as="geometry">
            <mxPoint as="offset" />
          </mxGeometry>
        </mxCell>
        <mxCell id="7AL00uAj7pg36N8BVsaX-5" value="" style="edgeStyle=orthogonalEdgeStyle;rounded=0;orthogonalLoop=1;jettySize=auto;html=1;fillColor=#f8cecc;strokeColor=#000000;" edge="1" parent="1" source="7AL00uAj7pg36N8BVsaX-6" target="7AL00uAj7pg36N8BVsaX-14">
          <mxGeometry relative="1" as="geometry" />
        </mxCell>
        <mxCell id="7AL00uAj7pg36N8BVsaX-6" value="" style="rounded=1;whiteSpace=wrap;html=1;" vertex="1" parent="1">
          <mxGeometry x="414" y="90" width="270" height="140" as="geometry" />
        </mxCell>
        <mxCell id="7AL00uAj7pg36N8BVsaX-7" value="&lt;font&gt;웹 브라우저&lt;/font&gt;" style="verticalAlign=top;verticalLabelPosition=bottom;labelPosition=center;align=center;html=1;outlineConnect=0;gradientDirection=north;strokeWidth=1;shape=mxgraph.networks.pc;fillColor=#d5e8d4;strokeColor=#82b366;" vertex="1" parent="1">
          <mxGeometry x="444" y="120" width="100" height="70" as="geometry" />
        </mxCell>
        <mxCell id="7AL00uAj7pg36N8BVsaX-8" value="모바일 앱" style="outlineConnect=0;dashed=0;verticalLabelPosition=bottom;verticalAlign=top;align=center;html=1;shape=mxgraph.aws3.mobile_client;fillColor=#f8cecc;strokeColor=#b85450;" vertex="1" parent="1">
          <mxGeometry x="594" y="127" width="40.5" height="63" as="geometry" />
        </mxCell>
        <mxCell id="7AL00uAj7pg36N8BVsaX-9" value="" style="points=[[0.5,0,0],[0.765,0.48,0],[0.99,0.98,0],[0.5,1,0],[0.01,0.98,0],[0.235,0.48,0]];verticalLabelPosition=bottom;sketch=0;html=1;verticalAlign=top;aspect=fixed;align=center;pointerEvents=1;shape=mxgraph.cisco19.ldap;fillColor=#005073;strokeColor=none;" vertex="1" parent="1">
          <mxGeometry x="509" y="330" width="80" height="68" as="geometry" />
        </mxCell>
        <mxCell id="7AL00uAj7pg36N8BVsaX-10" value="Public IP 주소" style="edgeStyle=orthogonalEdgeStyle;rounded=0;orthogonalLoop=1;jettySize=auto;html=1;" edge="1" parent="1">
          <mxGeometry relative="1" as="geometry">
            <mxPoint x="414" y="170" as="targetPoint" />
            <mxPoint x="290" y="170" as="sourcePoint" />
          </mxGeometry>
        </mxCell>
        <mxCell id="7AL00uAj7pg36N8BVsaX-11" value="" style="image;aspect=fixed;html=1;points=[];align=center;fontSize=12;image=img/lib/azure2/networking/DNS_Zones.svg;" vertex="1" parent="1">
          <mxGeometry x="200" y="115" width="90" height="90" as="geometry" />
        </mxCell>
        <mxCell id="7AL00uAj7pg36N8BVsaX-12" value="로드밸런서" style="text;html=1;align=center;verticalAlign=middle;resizable=0;points=[];autosize=1;strokeColor=none;fillColor=none;" vertex="1" parent="1">
          <mxGeometry x="589" y="349" width="80" height="30" as="geometry" />
        </mxCell>
        <mxCell id="7AL00uAj7pg36N8BVsaX-13" value="사용자" style="text;html=1;align=center;verticalAlign=middle;resizable=0;points=[];autosize=1;strokeColor=none;fillColor=none;" vertex="1" parent="1">
          <mxGeometry x="519" y="60" width="60" height="30" as="geometry" />
        </mxCell>
        <mxCell id="7AL00uAj7pg36N8BVsaX-14" value="CDN" style="image;aspect=fixed;html=1;points=[];align=center;fontSize=12;image=img/lib/azure2/app_services/CDN_Profiles.svg;" vertex="1" parent="1">
          <mxGeometry x="800" y="125.25" width="118.15" height="69.5" as="geometry" />
        </mxCell>
        <mxCell id="7AL00uAj7pg36N8BVsaX-15" value="NoSQL" style="image;aspect=fixed;perimeter=ellipsePerimeter;html=1;align=center;shadow=0;dashed=0;spacingTop=3;image=img/lib/active_directory/database_server.svg;" vertex="1" parent="1">
          <mxGeometry x="1000" y="750" width="72.7" height="88.66" as="geometry" />
        </mxCell>
        <mxCell id="7AL00uAj7pg36N8BVsaX-16" value="" style="rounded=1;whiteSpace=wrap;html=1;dashed=1;" vertex="1" parent="1">
          <mxGeometry x="188" y="510" width="722" height="450" as="geometry" />
        </mxCell>
        <mxCell id="7AL00uAj7pg36N8BVsaX-17" value="" style="edgeStyle=orthogonalEdgeStyle;rounded=0;orthogonalLoop=1;jettySize=auto;html=1;entryX=0;entryY=0.5;entryDx=0;entryDy=0;" edge="1" parent="1" source="7AL00uAj7pg36N8BVsaX-19" target="7AL00uAj7pg36N8BVsaX-32">
          <mxGeometry relative="1" as="geometry">
            <mxPoint x="590" y="652.5" as="targetPoint" />
          </mxGeometry>
        </mxCell>
        <mxCell id="7AL00uAj7pg36N8BVsaX-18" value="발행" style="edgeLabel;html=1;align=center;verticalAlign=middle;resizable=0;points=[];" vertex="1" connectable="0" parent="7AL00uAj7pg36N8BVsaX-17">
          <mxGeometry x="-0.0055" y="1" relative="1" as="geometry">
            <mxPoint as="offset" />
          </mxGeometry>
        </mxCell>
        <mxCell id="7AL00uAj7pg36N8BVsaX-19" value="" style="rounded=1;whiteSpace=wrap;html=1;dashed=1;" vertex="1" parent="1">
          <mxGeometry x="300" y="575" width="140" height="155" as="geometry" />
        </mxCell>
        <mxCell id="7AL00uAj7pg36N8BVsaX-20" value="웹서버" style="image;aspect=fixed;perimeter=ellipsePerimeter;html=1;align=center;shadow=0;dashed=0;spacingTop=3;image=img/lib/active_directory/server_farm.svg;" vertex="1" parent="1">
          <mxGeometry x="320" y="595" width="100" height="100" as="geometry" />
        </mxCell>
        <mxCell id="7AL00uAj7pg36N8BVsaX-21" value="" style="rounded=1;whiteSpace=wrap;html=1;" vertex="1" parent="1">
          <mxGeometry x="240" y="790" width="230" height="140" as="geometry" />
        </mxCell>
        <mxCell id="7AL00uAj7pg36N8BVsaX-22" value="" style="rounded=1;whiteSpace=wrap;html=1;" vertex="1" parent="1">
          <mxGeometry x="500" y="790" width="120" height="140" as="geometry" />
        </mxCell>
        <mxCell id="7AL00uAj7pg36N8BVsaX-23" value="" style="outlineConnect=0;dashed=0;verticalLabelPosition=bottom;verticalAlign=top;align=center;html=1;shape=mxgraph.aws3.cache_node;fillColor=#2E73B8;gradientColor=none;" vertex="1" parent="1">
          <mxGeometry x="520" y="810.6600000000001" width="60" height="63" as="geometry" />
        </mxCell>
        <mxCell id="7AL00uAj7pg36N8BVsaX-24" value="" style="endArrow=classic;html=1;rounded=0;exitX=0.5;exitY=1;exitDx=0;exitDy=0;exitPerimeter=0;entryX=0.5;entryY=0;entryDx=0;entryDy=0;" edge="1" parent="1" source="7AL00uAj7pg36N8BVsaX-9" target="7AL00uAj7pg36N8BVsaX-16">
          <mxGeometry width="50" height="50" relative="1" as="geometry">
            <mxPoint x="620" y="550" as="sourcePoint" />
            <mxPoint x="670" y="500" as="targetPoint" />
          </mxGeometry>
        </mxCell>
        <mxCell id="7AL00uAj7pg36N8BVsaX-25" value="지리적 라우팅" style="edgeLabel;html=1;align=center;verticalAlign=middle;resizable=0;points=[];" vertex="1" connectable="0" parent="7AL00uAj7pg36N8BVsaX-24">
          <mxGeometry x="-0.1413" y="-2" relative="1" as="geometry">
            <mxPoint as="offset" />
          </mxGeometry>
        </mxCell>
        <mxCell id="7AL00uAj7pg36N8BVsaX-26" value="" style="endArrow=classic;html=1;rounded=0;exitX=0.5;exitY=1;exitDx=0;exitDy=0;entryX=0.5;entryY=0;entryDx=0;entryDy=0;" edge="1" parent="1" source="7AL00uAj7pg36N8BVsaX-19" target="7AL00uAj7pg36N8BVsaX-21">
          <mxGeometry width="50" height="50" relative="1" as="geometry">
            <mxPoint x="630" y="660" as="sourcePoint" />
            <mxPoint x="680" y="610" as="targetPoint" />
          </mxGeometry>
        </mxCell>
        <mxCell id="7AL00uAj7pg36N8BVsaX-27" value="" style="endArrow=classic;html=1;rounded=0;exitX=0.5;exitY=1;exitDx=0;exitDy=0;entryX=0.074;entryY=0.024;entryDx=0;entryDy=0;entryPerimeter=0;" edge="1" parent="1" source="7AL00uAj7pg36N8BVsaX-19" target="7AL00uAj7pg36N8BVsaX-22">
          <mxGeometry width="50" height="50" relative="1" as="geometry">
            <mxPoint x="630" y="660" as="sourcePoint" />
            <mxPoint x="680" y="610" as="targetPoint" />
          </mxGeometry>
        </mxCell>
        <mxCell id="7AL00uAj7pg36N8BVsaX-28" value="" style="endArrow=classic;html=1;rounded=0;entryX=0;entryY=0.25;entryDx=0;entryDy=0;exitX=0.5;exitY=1;exitDx=0;exitDy=0;" edge="1" parent="1" source="7AL00uAj7pg36N8BVsaX-19" target="7AL00uAj7pg36N8BVsaX-15">
          <mxGeometry width="50" height="50" relative="1" as="geometry">
            <mxPoint x="360" y="720" as="sourcePoint" />
            <mxPoint x="670" y="600" as="targetPoint" />
          </mxGeometry>
        </mxCell>
        <mxCell id="7AL00uAj7pg36N8BVsaX-29" value="&lt;div style=&quot;text-align: left;&quot;&gt;&lt;span style=&quot;background-color: transparent; color: light-dark(rgb(0, 0, 0), rgb(255, 255, 255));&quot;&gt;DC1&lt;/span&gt;&lt;/div&gt;" style="text;html=1;align=center;verticalAlign=middle;whiteSpace=wrap;rounded=0;" vertex="1" parent="1">
          <mxGeometry x="213.65" y="530" width="60" height="30" as="geometry" />
        </mxCell>
        <mxCell id="7AL00uAj7pg36N8BVsaX-30" value="" style="edgeStyle=orthogonalEdgeStyle;rounded=0;orthogonalLoop=1;jettySize=auto;html=1;entryX=0.5;entryY=0;entryDx=0;entryDy=0;exitX=0.5;exitY=1;exitDx=0;exitDy=0;" edge="1" parent="1" source="7AL00uAj7pg36N8BVsaX-32" target="7AL00uAj7pg36N8BVsaX-36">
          <mxGeometry relative="1" as="geometry">
            <Array as="points">
              <mxPoint x="734" y="690" />
              <mxPoint x="734" y="690" />
            </Array>
            <mxPoint x="740" y="730" as="sourcePoint" />
            <mxPoint x="939" y="654.5" as="targetPoint" />
          </mxGeometry>
        </mxCell>
        <mxCell id="7AL00uAj7pg36N8BVsaX-31" value="소비" style="edgeLabel;html=1;align=center;verticalAlign=middle;resizable=0;points=[];" vertex="1" connectable="0" parent="7AL00uAj7pg36N8BVsaX-30">
          <mxGeometry x="0.1" y="1" relative="1" as="geometry">
            <mxPoint x="-1" y="-9" as="offset" />
          </mxGeometry>
        </mxCell>
        <mxCell id="7AL00uAj7pg36N8BVsaX-32" value="" style="rounded=1;whiteSpace=wrap;html=1;" vertex="1" parent="1">
          <mxGeometry x="609" y="622.5" width="250" height="60" as="geometry" />
        </mxCell>
        <mxCell id="7AL00uAj7pg36N8BVsaX-33" value="" style="shape=message;html=1;html=1;outlineConnect=0;labelPosition=center;verticalLabelPosition=bottom;align=center;verticalAlign=top;" vertex="1" parent="1">
          <mxGeometry x="623" y="632.5" width="60" height="40" as="geometry" />
        </mxCell>
        <mxCell id="7AL00uAj7pg36N8BVsaX-34" value="" style="shape=message;html=1;html=1;outlineConnect=0;labelPosition=center;verticalLabelPosition=bottom;align=center;verticalAlign=top;" vertex="1" parent="1">
          <mxGeometry x="699" y="632.5" width="60" height="40" as="geometry" />
        </mxCell>
        <mxCell id="7AL00uAj7pg36N8BVsaX-35" value="" style="shape=message;html=1;html=1;outlineConnect=0;labelPosition=center;verticalLabelPosition=bottom;align=center;verticalAlign=top;" vertex="1" parent="1">
          <mxGeometry x="779" y="632.5" width="60" height="40" as="geometry" />
        </mxCell>
        <mxCell id="7AL00uAj7pg36N8BVsaX-36" value="ㅅ" style="rounded=1;whiteSpace=wrap;html=1;dashed=1;" vertex="1" parent="1">
          <mxGeometry x="654" y="772.5" width="160" height="160" as="geometry" />
        </mxCell>
        <mxCell id="7AL00uAj7pg36N8BVsaX-37" value="작업 서버" style="image;aspect=fixed;perimeter=ellipsePerimeter;html=1;align=center;shadow=0;dashed=0;spacingTop=3;image=img/lib/active_directory/server_farm.svg;" vertex="1" parent="1">
          <mxGeometry x="684" y="790" width="100" height="100" as="geometry" />
        </mxCell>
        <mxCell id="7AL00uAj7pg36N8BVsaX-38" value="메시지 큐(작업 큐)" style="text;html=1;align=center;verticalAlign=middle;resizable=0;points=[];autosize=1;strokeColor=none;fillColor=none;" vertex="1" parent="1">
          <mxGeometry x="680" y="592.5" width="120" height="30" as="geometry" />
        </mxCell>
        <mxCell id="7AL00uAj7pg36N8BVsaX-39" value="" style="outlineConnect=0;dashed=0;verticalLabelPosition=bottom;verticalAlign=top;align=center;html=1;shape=mxgraph.aws3.cache_node;fillColor=#2E73B8;gradientColor=none;" vertex="1" parent="1">
          <mxGeometry x="530" y="820.6600000000001" width="60" height="63" as="geometry" />
        </mxCell>
        <mxCell id="7AL00uAj7pg36N8BVsaX-40" value="캐시" style="outlineConnect=0;dashed=0;verticalLabelPosition=bottom;verticalAlign=top;align=center;html=1;shape=mxgraph.aws3.cache_node;fillColor=#2E73B8;gradientColor=none;" vertex="1" parent="1">
          <mxGeometry x="540" y="830.6600000000001" width="60" height="63" as="geometry" />
        </mxCell>
        <mxCell id="7AL00uAj7pg36N8BVsaX-41" value="" style="edgeStyle=orthogonalEdgeStyle;rounded=0;orthogonalLoop=1;jettySize=auto;html=1;entryX=0.5;entryY=1;entryDx=0;entryDy=0;" edge="1" parent="1" source="7AL00uAj7pg36N8BVsaX-42" target="7AL00uAj7pg36N8BVsaX-16">
          <mxGeometry relative="1" as="geometry" />
        </mxCell>
        <mxCell id="7AL00uAj7pg36N8BVsaX-42" value="" style="rounded=1;whiteSpace=wrap;html=1;" vertex="1" parent="1">
          <mxGeometry x="454" y="1010" width="190" height="90" as="geometry" />
        </mxCell>
        <mxCell id="7AL00uAj7pg36N8BVsaX-43" value="로그" style="rounded=1;whiteSpace=wrap;html=1;" vertex="1" parent="1">
          <mxGeometry x="463" y="1020" width="81" height="30" as="geometry" />
        </mxCell>
        <mxCell id="7AL00uAj7pg36N8BVsaX-44" value="메트릭" style="rounded=1;whiteSpace=wrap;html=1;" vertex="1" parent="1">
          <mxGeometry x="554" y="1020" width="81" height="30" as="geometry" />
        </mxCell>
        <mxCell id="7AL00uAj7pg36N8BVsaX-45" value="모니터링" style="rounded=1;whiteSpace=wrap;html=1;" vertex="1" parent="1">
          <mxGeometry x="463" y="1060" width="81" height="30" as="geometry" />
        </mxCell>
        <mxCell id="7AL00uAj7pg36N8BVsaX-46" value="자동화" style="rounded=1;whiteSpace=wrap;html=1;" vertex="1" parent="1">
          <mxGeometry x="554" y="1060" width="81" height="30" as="geometry" />
        </mxCell>
        <mxCell id="7AL00uAj7pg36N8BVsaX-47" value="Shard 1" style="shape=cylinder3;whiteSpace=wrap;html=1;boundedLbl=1;backgroundOutline=1;size=15;fillColor=#dae8fc;strokeColor=light-dark(#2e73b8, #5c79a3);" vertex="1" parent="1">
          <mxGeometry x="250" y="820" width="60" height="80" as="geometry" />
        </mxCell>
        <mxCell id="7AL00uAj7pg36N8BVsaX-48" value="Shard 2" style="shape=cylinder3;whiteSpace=wrap;html=1;boundedLbl=1;backgroundOutline=1;size=15;fillColor=#dae8fc;strokeColor=light-dark(#2e73b8, #5c79a3);" vertex="1" parent="1">
          <mxGeometry x="325" y="820" width="60" height="80" as="geometry" />
        </mxCell>
        <mxCell id="7AL00uAj7pg36N8BVsaX-49" value="Shard 3" style="shape=cylinder3;whiteSpace=wrap;html=1;boundedLbl=1;backgroundOutline=1;size=15;fillColor=#dae8fc;strokeColor=light-dark(#2e73b8, #5c79a3);" vertex="1" parent="1">
          <mxGeometry x="403" y="820" width="60" height="80" as="geometry" />
        </mxCell>
      </root>
    </mxGraphModel>
  </diagram>
</mxfile>
